<svg width="126" height="154" viewBox="0 0 126 154" fill="none" xmlns="http://www.w3.org/2000/svg">
    <path d="M62.8927 121.72C59.4038 122.239 55.84 121.643 52.7095 120.018L47.7695 145.538C51.0128 146.465 54.4511 146.465 57.6943 145.538C59.6095 134.382 62.9967 125.96 62.8927 121.72Z" fill="#9CECDE"/>
    <path d="M87.923 117.313C85.9934 120.183 83.2062 122.37 79.959 123.56L98.275 143.303C101.756 141.023 103.075 139.929 104.218 136.236C93.795 123.609 93.7278 122.072 87.923 117.313Z" fill="#9CECDE"/>
    <path d="M113.58 61.7463C116.589 61.9439 117.076 61.2295 113.96 60.1807C113.093 59.8919 108.457 59.1775 107.606 59.0559L105.692 58.7975C104.065 58.3111 107.089 56.3047 107.698 55.5751C108.533 54.5871 109.415 53.4623 106.163 54.9215C105.609 55.1615 104.083 55.9335 100.873 57.1255C97.0044 58.4783 96.938 58.3511 96.2988 58.8127C96.5908 59.98 97.1524 61.0626 97.9396 61.9732C98.726 62.884 99.7148 63.5973 100.828 64.0559L102.849 63.3263C104.346 63.3698 105.836 63.5428 107.303 63.8431C108.503 64.1167 110.509 64.8919 111.801 65.2263C112.121 65.3191 112.74 64.9519 110.084 63.3567C111.391 63.4631 113.218 63.8159 114.628 63.9799C114.964 64.0191 115.312 63.5391 113.382 62.7343C112.668 62.4447 111.421 61.9279 110.798 61.7311C111.725 61.6844 112.653 61.6894 113.58 61.7463Z" fill="#9CECDE"/>
    <path d="M21.672 59.8463C18.1608 59.1927 19.3008 60.0863 20.3344 60.8495C21.0944 61.4095 24.544 62.6271 23.0856 63.4935C19.3464 64.9335 15.8808 66.4727 15.3336 66.8223C12.5528 68.5703 13.1904 69.148 16.0784 68.2512C16.9658 67.9655 17.8693 67.7319 18.784 67.5519C18.144 67.9471 16.8688 68.8744 16.504 69.152C14.8168 70.3984 15.2728 70.7783 15.592 70.6719C16.808 70.2615 18.6776 69.3919 19.8632 68.9999C19.6048 69.2399 19.4072 69.4559 19.2856 69.5775C17.8112 71.0672 18.34 71.3808 18.632 71.2192C19.7912 70.5752 21.5808 69.3792 22.6744 68.8191C24.0298 68.1802 25.4387 67.6614 26.8848 67.2687L29.5296 67.5575C29.8245 65.2907 30.67 63.1305 31.992 61.2655C31.0528 60.9783 28.0928 61.0695 21.672 59.8463Z" fill="#9CECDE"/>
    <path d="M67.8323 56.031C67.5923 54.7422 67.0803 51.643 68.1363 51.0766C70.8723 49.6478 69.6259 47.1566 68.1971 48.3406C67.5131 48.9006 67.2547 48.8118 67.2091 48.3558C67.2395 45.8174 64.7627 41.455 62.0572 47.7022C61.2428 49.5982 60.2972 52.3422 61.8172 53.6142C62.9371 54.5494 64.7131 54.0582 65.6171 53.8726L64.3691 55.6326C64.2531 56.5222 63.9051 57.4214 63.0179 57.2166C62.3591 57.052 61.6882 56.9402 61.0116 56.8822C61.0116 56.8822 62.9875 63.9494 65.0115 67.2822C66.4467 63.4248 68.4835 59.8187 71.0451 56.5974C69.0483 56.791 68.2315 58.167 67.8323 56.031Z" fill="#9CECDE"/>
    <path d="M19.4082 60.0591V64.9831C20.1074 64.6943 20.8482 64.3903 21.6274 64.0711V61.5559C20.8001 61.201 20.0472 60.6932 19.4082 60.0591Z" fill="#8767E3"/>
    <path d="M19.4082 70.7743V152.985H21.6274V69.3911C20.9282 69.8319 20.1226 70.3487 19.4082 70.7743Z" fill="#8767E3"/>
    <path d="M65.6136 53.8879L64.3984 55.6207L64.4288 54.1463L65.6136 53.8879Z" fill="#8767E3"/>
    <path d="M96.3144 58.8399L96.6792 58.6119C96.7592 58.5703 99.9072 57.4759 99.9592 57.4567C97.8944 56.4263 96.0864 56.8823 96.3144 58.8399Z" fill="#8767E3"/>
    <path d="M102.91 63.3264L100.83 64.056C102.228 64.6336 103.63 64.5552 104.008 63.3848L102.91 63.3264Z" fill="#8767E3"/>
    <path d="M58.8495 150.72C58.6735 148.946 58.2856 147.201 57.6943 145.52C54.451 146.447 51.0127 146.447 47.7694 145.52C43.4686 146.766 38.559 150.581 35.9902 152.982C44.623 152.982 50.3382 152.906 56.9039 152.891C57.1791 152.892 57.4513 152.834 57.7027 152.722C57.9541 152.61 58.179 152.446 58.3627 152.241C58.5463 152.036 58.6846 151.794 58.7685 151.533C58.8524 151.27 58.88 150.994 58.8495 150.72Z" fill="#8767E3"/>
    <path d="M107.03 137.74L104.203 136.22C103.078 139.914 101.741 141.008 98.2598 143.288C100.008 145.902 99.5974 147.194 99.3998 147.954C97.5598 149.686 96.6342 149.679 95.3574 152.994H101.757C102.617 153.013 103.464 152.786 104.199 152.34C104.933 151.894 105.526 151.248 105.907 150.478C106.867 148.398 107.667 144.186 108.566 141.708C108.846 140.974 108.844 140.162 108.561 139.429C108.277 138.696 107.732 138.094 107.03 137.74Z" fill="#8767E3"/>
    <path d="M108.991 41.3336C108.984 41.4727 108.924 41.6037 108.821 41.6977C108.719 41.7918 108.583 41.8413 108.444 41.8352C108.304 41.8292 108.173 41.7681 108.08 41.6655C107.985 41.5629 107.936 41.4271 107.942 41.288C107.945 41.2192 107.961 41.1516 107.991 41.0891C108.02 41.0266 108.061 40.9705 108.112 40.9239C108.163 40.8773 108.222 40.8412 108.287 40.8176C108.352 40.794 108.42 40.7834 108.489 40.7864C108.558 40.7894 108.626 40.8059 108.688 40.835C108.751 40.8641 108.807 40.9053 108.853 40.9561C108.9 41.0069 108.936 41.0665 108.96 41.1312C108.983 41.196 108.994 41.2648 108.991 41.3336Z" fill="#8767E3"/>
    <path d="M39.6681 31.3199L22.9961 2.42468C22.7456 1.99147 22.3855 1.63178 21.9521 1.3817C21.5186 1.13164 21.027 1 20.5265 1C20.0261 1 19.5345 1.13164 19.101 1.3817C18.6675 1.63178 18.3075 1.99147 18.0569 2.42468L1.38168 31.3199C1.13184 31.7525 1.00024 32.2432 1 32.7428C0.99984 33.2424 1.13104 33.7332 1.38056 34.166C1.63008 34.5988 1.98912 34.9583 2.42152 35.2085C2.85392 35.4586 3.34456 35.5905 3.84408 35.5911H19.4233V59.7095C19.6361 59.5879 20.2897 59.6031 21.6425 59.8463V35.5887H37.2057C37.705 35.5879 38.1952 35.4559 38.6272 35.2059C39.0594 34.9558 39.4181 34.5966 39.6676 34.1641C39.917 33.7317 40.0484 33.2413 40.0484 32.7421C40.0485 32.2429 39.9174 31.7524 39.6681 31.3199ZM20.0617 12.2127C20.0617 12.0918 20.1098 11.9758 20.1953 11.8903C20.2808 11.8047 20.3968 11.7567 20.5177 11.7567C20.6387 11.7567 20.7547 11.8047 20.8402 11.8903C20.9257 11.9758 20.9737 12.0918 20.9737 12.2127V22.2927C20.9737 22.4136 20.9257 22.5296 20.8402 22.6152C20.7547 22.7007 20.6387 22.7487 20.5177 22.7487C20.3968 22.7487 20.2808 22.7007 20.1953 22.6152C20.1098 22.5296 20.0617 22.4136 20.0617 22.2927V12.2127ZM20.5177 26.1047C20.7282 26.1047 20.9339 26.1671 21.1088 26.284C21.2839 26.4009 21.4202 26.5671 21.5007 26.7616C21.5813 26.956 21.6023 27.1699 21.5613 27.3763C21.5203 27.5827 21.4189 27.7723 21.2701 27.9211C21.1213 28.0699 20.9317 28.1712 20.7253 28.2123C20.5189 28.2533 20.305 28.2322 20.1106 28.1517C19.9161 28.0712 19.7499 27.9348 19.6331 27.7598C19.5161 27.5848 19.4537 27.3792 19.4537 27.1687C19.4529 27.0288 19.4798 26.8903 19.5328 26.7609C19.5859 26.6316 19.6641 26.514 19.7629 26.415C19.8617 26.316 19.9791 26.2377 20.1084 26.1844C20.2377 26.1312 20.3763 26.104 20.5161 26.1047H20.5177Z" fill="#8767E3"/>
    <path d="M80.4781 43.1598C80.9533 43.023 81.3653 42.7215 81.6389 42.3092C81.9125 41.8969 82.0309 41.4006 81.9725 40.9091C81.9141 40.4176 81.6829 39.963 81.3197 39.6263C80.9565 39.2898 80.4861 39.0932 79.9917 39.0718C80.3397 38.7584 80.5725 38.337 80.6525 37.8754C80.7317 37.4137 80.6541 36.9386 80.4317 36.5265C80.2085 36.1143 79.8541 35.789 79.4237 35.6029C78.9941 35.4166 78.5141 35.3804 78.0613 35.4998C78.2565 35.0833 78.3101 34.6138 78.2117 34.1641C78.1141 33.7144 77.8709 33.3094 77.5197 33.0118C77.1685 32.7143 76.7293 32.5406 76.2693 32.5178C75.8101 32.495 75.3557 32.6242 74.9765 32.8854C75.0293 32.408 74.9165 31.9268 74.6573 31.5226C74.3973 31.1185 74.0069 30.816 73.5501 30.6658C73.0941 30.5158 72.5997 30.5272 72.1509 30.6983C71.7021 30.8694 71.3261 31.1897 71.0853 31.6054C70.9925 31.1077 70.7293 30.6578 70.3405 30.3334C69.9517 30.0091 69.4621 29.8306 68.9557 29.8289C68.4493 29.827 67.9589 30.002 67.5677 30.3236C67.1765 30.6452 66.9101 31.0932 66.8141 31.5902C66.5765 31.1727 66.2029 30.8496 65.7549 30.6749C65.3077 30.5002 64.8133 30.4845 64.3557 30.6306C63.8981 30.7766 63.5045 31.0754 63.2413 31.4771C62.9781 31.8787 62.8605 32.3587 62.9085 32.8366C62.5318 32.5718 62.0786 32.4383 61.6186 32.4566C61.1586 32.475 60.7174 32.6441 60.363 32.9379C60.0086 33.2318 59.7607 33.6341 59.6576 34.0828C59.5545 34.5314 59.6019 35.0016 59.7924 35.4206C59.341 35.3008 58.8625 35.335 58.4327 35.5178C58.003 35.7005 57.6464 36.0214 57.4196 36.4297C57.1928 36.838 57.1087 37.3102 57.1805 37.7718C57.2524 38.2332 57.4762 38.6575 57.8164 38.9774C57.322 38.995 56.8499 39.1874 56.484 39.5205C56.1182 39.8535 55.8824 40.3055 55.8185 40.7961C55.7547 41.2866 55.867 41.784 56.1354 42.1995C56.4039 42.615 56.811 42.9219 57.2844 43.0654C56.8102 43.2054 56.401 43.509 56.1297 43.9222C55.8583 44.3355 55.7424 44.8317 55.8027 45.3224C55.8628 45.8131 56.0952 46.2666 56.4584 46.602C56.8216 46.9374 57.292 47.1331 57.786 47.1542C57.4421 47.4714 57.2145 47.8946 57.1395 48.3563C57.0644 48.8181 57.1464 49.2916 57.3723 49.7012C57.5981 50.1109 57.9547 50.433 58.3852 50.6161C58.8157 50.7991 59.2951 50.8326 59.7468 50.7111C59.592 51.0399 59.5261 51.4037 59.5557 51.7659C59.5852 52.1283 59.7092 52.4765 59.9153 52.7759C60.1213 53.0754 60.4023 53.3156 60.73 53.4727C61.0579 53.6297 61.4211 53.6981 61.7836 53.671C60.8564 52.9262 60.522 51.2711 62.042 47.759C64.7477 41.5126 67.2245 45.8742 67.1941 48.4126C67.2397 48.8686 67.4981 48.9598 68.1821 48.3974C69.6109 47.2118 70.8573 49.7046 68.1365 51.1327C67.6197 51.4071 67.2701 52.0127 67.7109 55.3727C67.7373 55.613 67.7781 55.8515 67.8325 56.0871C68.1285 56.2388 68.4573 56.3185 68.7901 56.3197C69.1229 56.3209 69.4517 56.2436 69.7493 56.0941C70.0469 55.9446 70.3053 55.727 70.5029 55.4591C70.7005 55.1911 70.8325 54.8803 70.8877 54.5519C71.1221 54.9717 71.4941 55.2983 71.9405 55.4767C72.3869 55.6552 72.8813 55.6749 73.3405 55.5324C73.7997 55.3899 74.1957 55.094 74.4629 54.6941C74.7301 54.2943 74.8517 53.8147 74.8077 53.3358C75.1813 53.6042 75.6325 53.7419 76.0925 53.7279C76.5517 53.7138 76.9941 53.5487 77.3501 53.2581C77.7069 52.9675 77.9573 52.5675 78.0637 52.1202C78.1701 51.6728 78.1253 51.2029 77.9381 50.783C78.3877 50.9044 78.8653 50.8723 79.2957 50.6918C79.7253 50.5114 80.0821 50.1929 80.3109 49.7866C80.5389 49.3803 80.6261 48.9095 80.5565 48.4486C80.4877 47.9876 80.2669 47.5629 79.9293 47.2414C80.4189 47.219 80.8853 47.0253 81.2469 46.6942C81.6085 46.3631 81.8421 45.9156 81.9077 45.4298C81.9725 44.9439 81.8653 44.4505 81.6045 44.0357C81.3429 43.6209 80.9445 43.3109 80.4781 43.1598Z" fill="#8767E3"/>
    <path d="M34.5755 64.512C35.1295 64.512 35.5787 64.0629 35.5787 63.5088C35.5787 62.9548 35.1295 62.5056 34.5755 62.5056C34.0214 62.5056 33.5723 62.9548 33.5723 63.5088C33.5723 64.0629 34.0214 64.512 34.5755 64.512Z" fill="#8767E3"/>
    <path d="M43.6041 72.1726C43.6041 72.3711 43.5452 72.565 43.4349 72.73C43.3248 72.895 43.1681 73.0236 42.9848 73.0995C42.8014 73.1754 42.5997 73.1953 42.4051 73.1566C42.2105 73.1179 42.0317 73.0223 41.8915 72.8821C41.7512 72.7418 41.6557 72.563 41.6169 72.3684C41.5782 72.1738 41.5981 71.9721 41.674 71.7888C41.7499 71.6054 41.8786 71.4488 42.0435 71.3386C42.2085 71.2283 42.4025 71.1694 42.6009 71.1694C42.8663 71.1716 43.1202 71.2779 43.3079 71.4656C43.4956 71.6533 43.602 71.9073 43.6041 72.1726Z" fill="#8767E3"/>
    <path d="M52.983 64.8767C52.983 65.0752 52.9242 65.2691 52.8139 65.4341C52.7037 65.5991 52.547 65.7277 52.3637 65.8036C52.1803 65.8795 51.9787 65.8994 51.7841 65.8607C51.5894 65.822 51.4107 65.7264 51.2704 65.5861C51.1301 65.4459 51.0346 65.2671 50.9959 65.0725C50.9571 64.8779 50.977 64.6762 51.053 64.4928C51.1289 64.3095 51.2575 64.1529 51.4224 64.0427C51.5874 63.9324 51.7814 63.8735 51.9798 63.8735C52.2451 63.8759 52.499 63.9823 52.6866 64.1699C52.8743 64.3576 52.9807 64.6114 52.983 64.8767Z" fill="#8767E3"/>
    <path d="M63.2877 73.4487C63.2877 73.6471 63.2293 73.8412 63.1189 74.0062C63.0085 74.1713 62.8525 74.3001 62.6689 74.3761C62.4856 74.4521 62.2839 74.4721 62.0892 74.4335C61.8946 74.3949 61.7157 74.2994 61.5754 74.1592C61.435 74.0188 61.3393 73.8401 61.3006 73.6455C61.2618 73.4509 61.2816 73.2491 61.3576 73.0657C61.4335 72.8824 61.562 72.7257 61.727 72.6154C61.892 72.5052 62.086 72.4463 62.2844 72.4463C62.5496 72.4486 62.8034 72.5549 62.9909 72.7424C63.1789 72.9298 63.2853 73.1835 63.2877 73.4487Z" fill="#8767E3"/>
    <path d="M72.0419 64.8767C72.0419 65.0752 71.9827 65.2691 71.8723 65.4341C71.7627 65.5991 71.6059 65.7277 71.4227 65.8036C71.2395 65.8795 71.0371 65.8994 70.8427 65.8607C70.6483 65.822 70.4691 65.7264 70.3291 65.5861C70.1891 65.4459 70.0931 65.2671 70.0547 65.0725C70.0155 64.8779 70.0355 64.6762 70.1115 64.4928C70.1875 64.3095 70.3163 64.1529 70.4811 64.0427C70.6459 63.9324 70.8403 63.8735 71.0387 63.8735C71.3035 63.8759 71.5579 63.9823 71.7451 64.1699C71.9331 64.3576 72.0395 64.6114 72.0419 64.8767Z" fill="#8767E3"/>
    <path d="M82.9848 65.4544C82.9848 65.6528 82.9256 65.8468 82.816 66.0117C82.7056 66.1767 82.5488 66.3053 82.3656 66.3813C82.1824 66.4572 81.9808 66.477 81.7856 66.4383C81.5912 66.3996 81.4128 66.304 81.272 66.1637C81.132 66.0235 81.036 65.8447 80.9976 65.6501C80.9592 65.4555 80.9792 65.2538 81.0544 65.0704C81.1304 64.8872 81.2592 64.7305 81.424 64.6203C81.5896 64.51 81.7832 64.4512 81.9816 64.4512C82.2472 64.4535 82.5008 64.5599 82.6888 64.7476C82.876 64.9352 82.9824 65.189 82.9848 65.4544Z" fill="#8767E3"/>
    <path d="M94.095 64.8768C94.6486 64.8768 95.0982 64.4276 95.0982 63.8736C95.0982 63.3196 94.6486 62.8704 94.095 62.8704C93.5406 62.8704 93.0918 63.3196 93.0918 63.8736C93.0918 64.4276 93.5406 64.8768 94.095 64.8768Z" fill="#8767E3"/>
    <path d="M89.733 74.6798C89.733 74.8782 89.6738 75.0722 89.5634 75.2371C89.4538 75.4021 89.297 75.5306 89.1138 75.6066C88.9306 75.6826 88.7282 75.7024 88.5338 75.6637C88.3394 75.625 88.1602 75.5294 88.0202 75.3891C87.8802 75.2489 87.7842 75.0701 87.7458 74.8755C87.7074 74.6809 87.7266 74.4792 87.8026 74.2958C87.8786 74.1126 88.0074 73.9558 88.1722 73.8457C88.337 73.7354 88.5314 73.6766 88.7298 73.6766C88.8618 73.6752 88.993 73.7002 89.1154 73.7501C89.2378 73.8 89.349 73.8738 89.4418 73.9673C89.5354 74.0607 89.609 74.1719 89.6594 74.2942C89.709 74.4166 89.7346 74.5477 89.733 74.6798Z" fill="#8767E3"/>
    <path d="M19.4082 59.7094V35.5886" stroke="#8767E3" stroke-width="0.8" stroke-linecap="round" stroke-linejoin="round"/>
    <path d="M19.4082 64.983V60.0742" stroke="#8767E3" stroke-width="0.8" stroke-linecap="round" stroke-linejoin="round"/>
    <path d="M19.4082 153V70.8198" stroke="#8767E3" stroke-width="0.8" stroke-linecap="round" stroke-linejoin="round"/>
    <path d="M21.6426 69.4519V153" stroke="#8767E3" stroke-width="0.8" stroke-linecap="round" stroke-linejoin="round"/>
    <path d="M21.6426 61.564V64.0864" stroke="#8767E3" stroke-width="0.8" stroke-linecap="round" stroke-linejoin="round"/>
    <path d="M21.6426 35.5886V59.8462" stroke="#8767E3" stroke-width="0.8" stroke-linecap="round" stroke-linejoin="round"/>
    <path d="M102.347 65.3025C106.151 73.9355 106.619 83.6728 103.66 92.6304C100.702 101.589 94.5257 109.131 86.3281 113.8" stroke="#8767E3" stroke-width="0.8" stroke-linecap="round" stroke-linejoin="round"/>
    <path d="M35.0176 60.7736C38.2217 55.5514 42.6379 51.1788 47.8916 48.0267C53.1454 44.8745 59.0818 43.0358 65.1978 42.6663C71.313 42.2968 77.4274 43.4076 83.0226 45.9043C88.6178 48.4011 93.5282 52.2103 97.3378 57.0088" stroke="#8767E3" stroke-width="0.8" stroke-linecap="round" stroke-linejoin="round"/>
    <path d="M52.7701 115.823C45.8456 112.92 39.9331 108.036 35.7746 101.785C31.6162 95.5328 29.3974 88.192 29.3965 80.684C29.3963 76.9363 29.9434 73.2087 31.0204 69.6191" stroke="#8767E3" stroke-width="0.8" stroke-linecap="round" stroke-linejoin="round"/>
    <path d="M73.8961 118.24C71.7929 118.683 69.6433 118.862 67.4961 118.772C66.4561 118.772 65.4105 118.73 64.3809 118.648" stroke="#8767E3" stroke-width="0.8" stroke-linecap="round" stroke-linejoin="round"/>
    <path d="M103.701 63.9343C100.721 66.9135 96.7814 71.2271 92.7118 76.1391C91.6966 77.3687 90.251 78.1647 88.6702 78.3647C87.0886 78.5655 85.4902 78.1551 84.2006 77.2183C80.6286 74.6199 78.2118 72.7503 74.291 69.8775" stroke="#8767E3" stroke-width="0.8" stroke-linecap="round" stroke-linejoin="round"/>
    <path d="M64.3789 55.6463L65.6125 53.8879" stroke="#8767E3" stroke-width="0.8" stroke-linecap="round" stroke-linejoin="round"/>
    <path d="M96.6532 57.4342C93.3052 60.3394 90.3052 63.6223 87.7124 67.2174C87.7124 67.2174 80.1275 60.8662 74.9307 57.703C69.5643 54.4366 68.3019 59.831 67.7107 55.347C67.2683 51.987 67.6195 51.379 68.1363 51.107C70.8563 49.6734 69.6059 47.179 68.1819 48.371C67.3347 49.0806 67.2395 48.771 67.2035 48.1078C67.0627 45.5478 64.6651 41.7078 62.0571 47.7326C58.3771 56.2286 65.6131 53.8878 65.6131 53.8878" stroke="#8767E3" stroke-width="0.8" stroke-linecap="round" stroke-linejoin="round"/>
    <path d="M64.4269 54.1357C64.5173 55.4381 64.3045 57.5365 63.0141 57.2317C59.7021 56.4493 58.2845 56.9693 56.4021 58.4317C52.6581 61.3422 45.0484 65.651 45.0484 65.651C40.5348 62.931 37.2669 61.7606 33.0573 59.9518C30.8273 62.416 29.5319 65.584 29.3965 68.9046C35.3965 71.4734 37.6957 72.9462 42.3917 75.2422C43.4435 75.7596 44.6086 76.0044 45.7798 75.9539C46.9509 75.9034 48.0906 75.5594 49.094 74.9534C52.0452 73.1646 54.8236 71.519 57.8484 69.923" stroke="#8767E3" stroke-width="0.8" stroke-linecap="round" stroke-linejoin="round"/>
    <path d="M99.9623 57.4599C98.1503 56.5535 96.5367 56.7927 96.3199 58.1863C96.1335 59.3863 96.9479 60.8023 97.7223 61.7311C98.8031 63.0903 100.326 64.0287 102.026 64.3839C102.421 64.4944 102.843 64.4532 103.21 64.2683C103.576 64.0835 103.86 63.7683 104.006 63.3847" stroke="#8767E3" stroke-width="0.8" stroke-linecap="round" stroke-linejoin="round"/>
    <path d="M56.9043 63.5542C57.2334 68.5744 58.518 73.4855 60.6891 78.0238C65.3291 79.255 69.0939 78.9662 73.7907 77.5374C73.4211 74.02 73.8851 70.465 75.1435 67.1598" stroke="#8767E3" stroke-width="0.8" stroke-linecap="round" stroke-linejoin="round"/>
    <path d="M100.829 64.056C102.984 63.2254 105.199 62.56 107.456 62.0656C109.479 61.7195 111.535 61.6174 113.581 61.7616C116.591 61.9392 117.072 61.2584 113.961 60.196C112.819 59.8056 106.985 58.9792 105.693 58.7976C103.626 58.5072 100.573 58.2048 98.549 58.144C98.3954 58.1444 98.2418 58.154 98.0898 58.1728" stroke="#8767E3" stroke-width="0.8" stroke-linecap="round" stroke-linejoin="round"/>
    <path d="M96.3145 58.84C96.3577 58.8128 103.372 56.2 106.163 54.92C109.402 53.4312 108.53 54.5824 107.698 55.5736C107.087 56.3008 104.066 58.3096 105.692 58.796" stroke="#8767E3" stroke-width="0.8" stroke-linecap="round" stroke-linejoin="round"/>
    <path d="M102.896 63.3198C104.736 62.879 108.368 63.2614 109.979 63.3534C111.286 63.4286 113.186 63.8574 114.645 63.9934C114.98 64.0246 115.344 63.5374 113.399 62.747C112.668 62.4518 111.381 61.9182 110.773 61.731" stroke="#8767E3" stroke-width="0.8" stroke-linecap="round" stroke-linejoin="round"/>
    <path d="M102.818 63.3535C104.332 63.3591 105.84 63.5232 107.319 63.8431C108.519 64.1167 110.53 64.8759 111.818 65.2263C112.138 65.3135 112.578 64.8919 110.799 63.7823C110.665 63.6927 110.413 63.5423 110.115 63.3663" stroke="#8767E3" stroke-width="0.8" stroke-linecap="round" stroke-linejoin="round"/>
    <path d="M29.5309 67.5519C27.0763 67.1879 24.5945 67.0404 22.1141 67.1111C20.0655 67.2676 18.0412 67.6551 16.0797 68.2663C13.1925 69.1639 12.5597 68.5959 15.3349 66.8263C20.021 64.5924 24.8679 62.7127 29.8349 61.203C30.5396 61.0106 31.2855 61.0318 31.9781 61.2639" stroke="#8767E3" stroke-width="0.8" stroke-linecap="round" stroke-linejoin="round"/>
    <path d="M23.1003 63.5087C24.5595 62.6423 21.1107 61.4287 20.3499 60.8687C19.3171 60.1071 18.1779 59.2047 21.6875 59.8655C24.6272 60.4641 27.6028 60.8697 30.5955 61.0799" stroke="#8767E3" stroke-width="0.8" stroke-linecap="round" stroke-linejoin="round"/>
    <path d="M18.785 67.5824C18.145 67.9776 16.8714 68.9072 16.505 69.1824C14.825 70.4248 15.2746 70.8112 15.593 70.7024C16.8578 70.2704 18.8002 69.3496 19.9706 68.9848C21.8706 68.392 25.5178 67.1304 27.2506 67.3128" stroke="#8767E3" stroke-width="0.8" stroke-linecap="round" stroke-linejoin="round"/>
    <path d="M19.8646 69.011C19.6062 69.2694 19.4086 69.4822 19.287 69.5886C17.8278 71.0782 18.3422 71.3934 18.6334 71.2302C19.795 70.5766 21.5678 69.379 22.6766 68.8302C24.0314 68.1905 25.4401 67.6716 26.8862 67.2798" stroke="#8767E3" stroke-width="0.8" stroke-linecap="round" stroke-linejoin="round"/>
    <path d="M58.8495 150.72C58.6735 148.946 58.2856 147.201 57.6943 145.52C54.451 146.447 51.0127 146.447 47.7694 145.52C43.4686 146.766 38.559 150.581 35.9902 152.982C44.623 152.982 50.3382 152.906 56.9039 152.891C57.1791 152.892 57.4513 152.834 57.7027 152.722C57.9541 152.61 58.179 152.446 58.3627 152.241C58.5463 152.036 58.6846 151.794 58.7685 151.533C58.8524 151.27 58.88 150.994 58.8495 150.72Z" stroke="#8767E3" stroke-width="0.8" stroke-linecap="round" stroke-linejoin="round"/>
    <path d="M62.8916 121.733C62.9916 125.977 59.6066 134.392 57.6914 145.538" stroke="#8767E3" stroke-width="0.8" stroke-linecap="round" stroke-linejoin="round"/>
    <path d="M47.7695 145.522L52.7103 119.998" stroke="#8767E3" stroke-width="0.8" stroke-linecap="round" stroke-linejoin="round"/>
    <path d="M69.3961 102.95L63.4233 121.645C59.4876 122.338 55.4336 121.616 51.9785 119.608L60.6881 78.04" stroke="#8767E3" stroke-width="0.8" stroke-linecap="round" stroke-linejoin="round"/>
    <path d="M107.045 137.755L104.218 136.235C103.093 139.928 101.738 141.022 98.2598 143.302C100.008 145.917 99.5974 147.209 99.3998 147.968C97.5598 149.701 96.6342 149.678 95.3574 152.992H101.757C102.617 153.011 103.464 152.784 104.199 152.338C104.933 151.893 105.526 151.246 105.907 150.476C106.867 148.396 107.667 144.184 108.566 141.706C108.846 140.976 108.845 140.169 108.565 139.438C108.284 138.709 107.742 138.11 107.045 137.755Z" stroke="#8767E3" stroke-width="0.8" stroke-linecap="round" stroke-linejoin="round"/>
    <path d="M98.2754 143.303L79.9609 123.56" stroke="#8767E3" stroke-width="0.8" stroke-linecap="round" stroke-linejoin="round"/>
    <path d="M87.9238 117.313C90.4998 119.432 92.8294 121.834 94.8702 124.472C97.6646 128.303 104.217 136.232 104.217 136.232" stroke="#8767E3" stroke-width="0.8" stroke-linecap="round" stroke-linejoin="round"/>
    <path d="M65.6133 88.5416L72.6053 115.216C73.1365 117.241 74.2205 119.077 75.7365 120.52L79.2205 123.837C82.9333 122.64 86.1101 120.182 88.1989 116.887L85.0533 111.687L83.0621 91.412C82.3309 83.86 77.8229 78.6528 73.7909 77.5352" stroke="#8767E3" stroke-width="0.8" stroke-linecap="round" stroke-linejoin="round"/>
    <path d="M71.0395 56.6086C68.4779 59.83 66.4411 63.4361 65.0059 67.2934C62.9843 63.9646 61.0059 56.8934 61.0059 56.8934" stroke="#8767E3" stroke-width="0.8" stroke-linecap="round" stroke-linejoin="round"/>
    <path d="M3.7832 153H124.675" stroke="#8767E3" stroke-width="0.8" stroke-linecap="round" stroke-linejoin="round"/>
    <path d="M110.221 27.8223C104.203 26.6823 98.4611 30.2223 97.4211 35.7256C97.0675 37.6536 97.3171 39.6439 98.1363 41.4248L95.5371 45.6808L100.462 44.6776C102.116 46.2632 104.197 47.3304 106.45 47.748C112.468 48.888 118.21 45.348 119.25 39.8448C120.298 34.3424 116.256 28.9623 110.221 27.8223Z" stroke="#8767E3" stroke-width="0.8" stroke-linecap="round" stroke-linejoin="round"/>
    <path d="M108.458 39.0238C108.473 38.3398 108.735 37.8406 109.583 36.7134C111.411 34.2822 110.303 32.607 108.747 32.5334C108.468 32.521 108.191 32.57 107.934 32.6771C107.677 32.7842 107.447 32.9467 107.259 33.1529C107.072 33.3591 106.932 33.6042 106.851 33.8704C106.769 34.1367 106.747 34.4177 106.787 34.6934" stroke="#8767E3" stroke-width="0.8" stroke-linecap="round" stroke-linejoin="round"/>
    <path d="M101.861 112.693H105.145" stroke="#8767E3" stroke-width="0.8" stroke-linecap="round" stroke-linejoin="round"/>
    <path d="M110.967 112.678H114.25" stroke="#8767E3" stroke-width="0.8" stroke-linecap="round" stroke-linejoin="round"/>
    <path d="M108.057 106.491V109.774" stroke="#8767E3" stroke-width="0.8" stroke-linecap="round" stroke-linejoin="round"/>
    <path d="M108.07 115.596V118.878" stroke="#8767E3" stroke-width="0.8" stroke-linecap="round" stroke-linejoin="round"/>
    <path d="M103.67 108.315L105.996 110.626" stroke="#8767E3" stroke-width="0.8" stroke-linecap="round" stroke-linejoin="round"/>
    <path d="M110.131 114.745L112.456 117.054" stroke="#8767E3" stroke-width="0.8" stroke-linecap="round" stroke-linejoin="round"/>
    <path d="M112.441 108.3L110.115 110.625" stroke="#8767E3" stroke-width="0.8" stroke-linecap="round" stroke-linejoin="round"/>
    <path d="M106.011 114.745L103.686 117.069" stroke="#8767E3" stroke-width="0.8" stroke-linecap="round" stroke-linejoin="round"/>
    <path d="M3.84404 35.5887C3.34492 35.5876 2.85483 35.4555 2.42291 35.2054C1.99099 34.9553 1.63235 34.5961 1.38291 34.1637C1.13355 33.7314 1.00219 33.2412 1.00195 32.742C1.00171 32.2429 1.13267 31.7524 1.38163 31.3199L18.0553 2.42468C18.3058 1.99147 18.6659 1.63178 19.0993 1.3817C19.5328 1.13164 20.0245 1 20.5249 1C21.0253 1 21.5169 1.13164 21.9504 1.3817C22.3839 1.63178 22.744 1.99147 22.9945 2.42468L39.6681 31.3199C39.9179 31.7525 40.0496 32.2432 40.0498 32.7428C40.05 33.2424 39.9187 33.7332 39.6692 34.166C39.4197 34.5988 39.0607 34.9583 38.6283 35.2084C38.1959 35.4586 37.7053 35.5905 37.2057 35.5911L3.84404 35.5887Z" stroke="#8767E3" stroke-width="0.8" stroke-linecap="round" stroke-linejoin="round"/>
    <path d="M44.2423 18.8856C44.2693 19.1861 44.2066 19.4879 44.062 19.7527C43.9175 20.0176 43.6976 20.2336 43.4303 20.3735C43.163 20.5134 42.8602 20.5709 42.5602 20.5388C42.2602 20.5066 41.9764 20.3862 41.7449 20.1928C41.5133 19.9993 41.3443 19.7416 41.2592 19.4521C41.1741 19.1626 41.1767 18.8544 41.2668 18.5664C41.3569 18.2784 41.5303 18.0236 41.7652 17.8343C42.0001 17.6448 42.2859 17.5294 42.5863 17.5024C42.9891 17.4672 43.3895 17.5931 43.6998 17.8523C44.0101 18.1114 44.2052 18.483 44.2423 18.8856Z" stroke="#8767E3" stroke-width="0.8" stroke-linecap="round" stroke-linejoin="round"/>
    <path d="M31.8789 129.563V135.704" stroke="#8767E3" stroke-width="0.8" stroke-linecap="round" stroke-linejoin="round"/>
    <path d="M34.956 132.634H28.8008" stroke="#8767E3" stroke-width="0.8" stroke-linecap="round" stroke-linejoin="round"/>
    <path d="M67.8305 56.0616C68.1241 56.2193 68.4505 56.3047 68.7841 56.3107C69.1169 56.3166 69.4465 56.2429 69.7457 56.0957C70.0441 55.9485 70.3041 55.732 70.5017 55.4643C70.7001 55.1967 70.8322 54.8855 70.8858 54.5567C71.1202 54.9766 71.4921 55.3031 71.9385 55.4816C72.3849 55.6602 72.8793 55.6798 73.3386 55.5373C73.7978 55.3948 74.1946 55.0989 74.461 54.699C74.7282 54.2991 74.8498 53.8196 74.8058 53.3407C75.1794 53.6091 75.6306 53.7468 76.0906 53.7327C76.5498 53.7187 76.9922 53.5536 77.3482 53.263C77.705 52.9723 77.9554 52.5724 78.0618 52.1251C78.1682 51.6777 78.1242 51.2078 77.9362 50.7879C78.2498 50.8754 78.5786 50.8883 78.8986 50.8257C79.2178 50.763 79.5178 50.6265 79.7746 50.4271C80.0314 50.2276 80.2386 49.9708 80.3786 49.6772C80.5186 49.3835 80.5882 49.0612 80.581 48.7359C80.5762 48.4567 80.5154 48.1813 80.4034 47.9256C80.2914 47.6699 80.1298 47.439 79.9274 47.2463C80.4746 47.2311 80.9938 47.0007 81.3722 46.6051C81.7506 46.2096 81.9578 45.6809 81.949 45.1335C81.941 44.6912 81.7946 44.2625 81.5298 43.908C81.2658 43.5535 80.8962 43.2909 80.4746 43.1575C80.9138 43.0283 81.3002 42.7598 81.5738 42.3925C81.8482 42.0253 81.9954 41.579 81.9946 41.1207C81.9874 40.5867 81.7754 40.0757 81.4018 39.6938C81.0282 39.3119 80.5218 39.0884 79.9882 39.0695C80.3034 38.7842 80.5242 38.4097 80.621 37.9958C80.7186 37.582 80.6874 37.1483 80.5322 36.7525C80.3778 36.3567 80.1058 36.0174 79.753 35.7797C79.401 35.5419 78.9842 35.417 78.5594 35.4215C78.3898 35.4253 78.221 35.4508 78.0578 35.4975C78.253 35.081 78.3066 34.6115 78.2082 34.1618C78.1106 33.7121 77.8674 33.3071 77.5162 33.0095C77.165 32.712 76.7258 32.5383 76.2658 32.5155C75.8066 32.4926 75.3522 32.6218 74.973 32.8831C75.0258 32.4057 74.9138 31.9245 74.6538 31.5203C74.3938 31.1162 74.0034 30.8137 73.5466 30.6635C73.0906 30.5134 72.5962 30.5249 72.1474 30.696C71.6985 30.867 71.3225 31.1874 71.0817 31.6031C70.7425 29.2663 67.1761 29.2119 66.8105 31.5879C66.5729 31.1705 66.1993 30.8473 65.7513 30.6726C65.3041 30.4978 64.8105 30.4822 64.3529 30.6282C63.8945 30.7743 63.5017 31.0731 63.2377 31.4748C62.9745 31.8764 62.8569 32.3564 62.9049 32.8343C62.5283 32.5695 62.075 32.436 61.615 32.4543C61.155 32.4726 60.7138 32.6418 60.3595 32.9356C60.0051 33.2295 59.7573 33.6318 59.6541 34.0805C59.551 34.5291 59.5984 34.9993 59.7889 35.4183C59.3368 35.2954 58.8565 35.3274 58.4249 35.5094C57.9931 35.6915 57.6349 36.013 57.4073 36.4226C57.1798 36.8321 57.0961 37.3061 57.1697 37.7688C57.2432 38.2315 57.4697 38.6563 57.8129 38.9751C57.3171 38.9905 56.843 39.1818 56.4754 39.5148C56.1078 39.8479 55.8709 40.3008 55.8068 40.7927C55.7428 41.2846 55.856 41.7831 56.1261 42.1991C56.3962 42.6152 56.8056 42.9215 57.2809 43.0631C56.8048 43.2011 56.3934 43.5042 56.1204 43.9179C55.8473 44.3317 55.7305 44.8291 55.7909 45.3211C55.8513 45.8131 56.0849 46.2676 56.4497 46.6031C56.8147 46.9385 57.2872 47.1331 57.7825 47.1519C57.4386 47.4691 57.2109 47.8923 57.136 48.354C57.0609 48.8158 57.1429 49.2893 57.3688 49.6989C57.5945 50.1086 57.9513 50.4307 58.3817 50.6138C58.8121 50.7968 59.2916 50.8303 59.7433 50.7087C59.5852 51.0423 59.5186 51.4119 59.5505 51.7796C59.5824 52.1474 59.7116 52.5 59.9248 52.8013C60.138 53.1027 60.4276 53.3418 60.7637 53.4943C61.0999 53.6467 61.4705 53.7069 61.8377 53.6687" stroke="#8767E3" stroke-width="0.8" stroke-linecap="round" stroke-linejoin="round"/>
    <path d="M84.9613 120.642L80.9941 115.914" stroke="#8767E3" stroke-width="0.8" stroke-linecap="round" stroke-linejoin="round"/>
    <path d="M59.0625 121.721L60.6889 115.823" stroke="#8767E3" stroke-width="0.8" stroke-linecap="round" stroke-linejoin="round"/>
    <path d="M71.0391 82.8271C73.2127 85.456 75.6295 86.5656 78.2279 86.5352" stroke="#8767E3" stroke-width="0.8" stroke-linecap="round" stroke-linejoin="round"/>
</svg>
